<svg id="Layer_1" data-name="Layer 1" xmlns="http://www.w3.org/2000/svg" viewBox="0 0 1000 1000"><defs><style>.cls-1{font-size:69.92px;font-family:Montserrat-Regular, Montserrat;letter-spacing:-0.03em;}.cls-1,.cls-6,.cls-7{fill:#3b65b0;}.cls-2{letter-spacing:-0.02em;}.cls-3{letter-spacing:-0.02em;}.cls-4{letter-spacing:-0.03em;}.cls-5{letter-spacing:-0.07em;}.cls-6{font-size:169.5px;font-family:Montserrat-Bold, Montserrat;font-weight:700;letter-spacing:-0.02em;}.cls-8{fill:#f18f2b;}</style></defs><text class="cls-1" transform="translate(171.54 638.05) scale(1.05 1)">E<tspan class="cls-2" x="44.33" y="0">x</tspan><tspan class="cls-3" x="80.26" y="0">p</tspan><tspan class="cls-2" x="126.06" y="0">and Af</tspan><tspan class="cls-4" x="345.81" y="0">r</tspan><tspan class="cls-2" x="371.89" y="0">ica </tspan><tspan class="cls-5" x="484.03" y="0">T</tspan><tspan class="cls-2" x="518.92" y="0">e</tspan><tspan class="cls-4" x="559.75" y="0">c</tspan><tspan class="cls-2" x="597.16" y="0">h</tspan></text><text class="cls-6" transform="translate(166.12 568.82) scale(0.99 1)">E</text><text class="cls-6" transform="translate(394.92 568.82) scale(0.99 1)">T</text><text class="cls-6" transform="translate(494.64 568.82) scale(0.99 1)">E</text><text class="cls-6" transform="translate(721.98 568.82) scale(0.99 1)">H</text><path class="cls-7" d="M356.15,471.89q-3.93,5.78-7.58,11.76l16,38.9H328.71c-2.88,6.86-5.53,13.81-7.89,20.85H373.1l10.38,25.42H412L364.18,460.71Q360,466.19,356.15,471.89Z"/><path class="cls-8" d="M658.52,370.76c-38.2-10.38-77.78-17-117.86-16.56-2.5.05-5,0-7.51.13l-7.51.38-3.76.19-3.75.34-7.5.67a297,297,0,0,0-29.85,4.75l-3.71.77-3.68.92c-2.45.62-4.91,1.2-7.36,1.86-4.86,1.44-9.75,2.77-14.54,4.48-4.84,1.55-9.55,3.47-14.31,5.28-4.67,2-9.39,4-14,6.24a252.05,252.05,0,0,0-51.64,33.09A258,258,0,0,0,349,434.35a292.2,292.2,0,0,0-20.16,23.44,307.14,307.14,0,0,0-17.66,25.42c-5.46,8.77-10.57,17.76-15.2,27-2.36,4.61-4.54,9.31-6.68,14s-4.13,9.53-6.05,14.36-3.72,9.75-5.41,14.73c-.84,2.49-1.64,5-2.42,7.56-.39,1.28-.77,2.57-1.13,3.88l-.55,2-.12.46a1.58,1.58,0,0,0,1.35,2l.2,0a68.65,68.65,0,0,1,11-.29c6.29.12,12.56.84,18.84,1.08.08-.35.15-.69.23-1q.75-3.37,1.63-6.78c1.16-4.54,2.46-9.07,3.87-13.59,2.81-9,6.15-18,9.85-26.7a284.88,284.88,0,0,1,27.19-50c21.29-31.45,49.67-58.11,83.18-76.13,4.15-2.32,8.46-4.32,12.73-6.42,4.37-1.88,8.69-3.89,13.16-5.54,4.42-1.82,9-3.27,13.47-4.85,2.28-.72,4.57-1.38,6.86-2.07l3.44-1,3.47-.88c2.32-.59,4.64-1.21,7-1.77l7-1.5c1.17-.24,2.34-.52,3.52-.72l3.55-.61c2.37-.41,4.73-.82,7.11-1.19l7.15-.92,3.58-.46,3.6-.32,7.2-.64c2.4-.2,4.81-.27,7.22-.41,38.59-1.93,77.63,2.88,115.57,12.07,19,4.57,37.77,10.15,56.33,16.45l2-5.81C696.44,382.21,677.64,376,658.52,370.76Z"/><text class="cls-6" transform="translate(603.54 568.82) scale(0.99 1)">C</text><polyline class="cls-8" points="722.06 401.11 652.64 406.33 683.14 382.45 679.36 349.27"/></svg>