<svg id="Layer_1" data-name="Layer 1" xmlns="http://www.w3.org/2000/svg" viewBox="0 0 1000 1000"><defs><style>.cls-1{font-size:96.61px;font-family:Montserrat-Regular, Montserrat;letter-spacing:-0.03em;}.cls-1,.cls-10,.cls-11,.cls-13,.cls-9{fill:#3b65b0;}.cls-2{letter-spacing:-0.02em;}.cls-3{letter-spacing:-0.02em;}.cls-4{letter-spacing:-0.03em;}.cls-5{letter-spacing:-0.02em;}.cls-6{letter-spacing:-0.07em;}.cls-7{letter-spacing:-0.03em;}.cls-8{letter-spacing:-0.02em;}.cls-10,.cls-13,.cls-9{font-size:234.2px;font-family:Montserrat-Bold, Montserrat;font-weight:700;}.cls-9{letter-spacing:-0.02em;}.cls-10{letter-spacing:-0.02em;}.cls-12{fill:#f18f2b;}.cls-13{letter-spacing:-0.02em;}</style></defs><text class="cls-1" transform="translate(20.43 720.05) scale(1.05 1)">E<tspan class="cls-2" x="61.25" y="0">x</tspan><tspan class="cls-3" x="110.9" y="0">p</tspan><tspan class="cls-2" x="174.18" y="0">and Af</tspan><tspan class="cls-4" x="477.81" y="0">r</tspan><tspan class="cls-5" x="513.85" y="0">ica </tspan><tspan class="cls-6" x="668.8" y="0">T</tspan><tspan class="cls-5" x="717.01" y="0">e</tspan><tspan class="cls-7" x="773.43" y="0">c</tspan><tspan class="cls-8" x="825.11" y="0">h</tspan></text><text class="cls-9" transform="translate(12.9 624.39) scale(0.99 1)">E</text><text class="cls-9" transform="translate(331.03 624.39) scale(0.99 1)">T</text><text class="cls-10" transform="translate(469.69 624.39) scale(0.99 1)">E</text><text class="cls-10" transform="translate(785.79 624.39) scale(0.99 1)">H</text><path class="cls-11" d="M277.13,490.45q-5.47,8-10.55,16.26l22.23,53.74H239c-4,9.48-7.69,19.09-11,28.81h72.68l14.44,35.13h39.6L288.29,475Q282.5,482.57,277.13,490.45Z"/><path class="cls-12" d="M697.55,350.71c-53.11-14.33-108.14-23.52-163.88-22.87-3.48.07-7,0-10.44.18l-10.44.52-5.23.27-5.21.46-10.44.92c-13.86,1.69-27.78,3.5-41.49,6.58l-5.16,1.06-5.12,1.26c-3.41.86-6.83,1.67-10.23,2.57-6.75,2-13.56,3.84-20.22,6.2-6.73,2.14-13.28,4.79-19.9,7.29-6.49,2.79-13.05,5.47-19.4,8.63a349.56,349.56,0,0,0-71.81,45.72,356.56,356.56,0,0,0-31.38,29.09,405.6,405.6,0,0,0-28,32.38,427.1,427.1,0,0,0-24.55,35.13c-7.59,12.11-14.7,24.54-21.14,37.33-3.27,6.37-6.3,12.86-9.28,19.39s-5.74,13.16-8.42,19.84-5.17,13.47-7.51,20.35q-1.75,5.16-3.37,10.45c-.54,1.76-1.06,3.55-1.58,5.36l-.76,2.76c-.05.22-.11.43-.16.63a2.19,2.19,0,0,0,1.88,2.74l.27,0c5.2-.75,10.74-.48,15.29-.4,8.74.17,17.46,1.16,26.19,1.5.11-.49.2-1,.31-1.45.71-3.1,1.46-6.23,2.27-9.37,1.62-6.26,3.43-12.53,5.38-18.77,3.92-12.49,8.55-24.8,13.7-36.9a394.57,394.57,0,0,1,37.8-69.14c29.6-43.45,69.06-80.29,115.66-105.19,5.77-3.21,11.76-6,17.71-8.87,6.07-2.6,12.08-5.38,18.3-7.66,6.13-2.51,12.45-4.52,18.72-6.69,3.17-1,6.36-1.91,9.54-2.87l4.78-1.41,4.83-1.23c3.23-.81,6.45-1.67,9.69-2.43l9.77-2.08c1.64-.33,3.26-.72,4.9-1l4.94-.85c3.29-.55,6.58-1.12,9.88-1.64l9.95-1.26,5-.64,5-.45,10-.88c3.34-.28,6.69-.37,10-.56,53.66-2.67,107.93,4,160.68,16.68,26.42,6.3,52.53,14,78.33,22.72l2.83-8C750.28,366.54,724.13,357.93,697.55,350.71Z"/><text class="cls-13" transform="translate(621.1 624.39) scale(0.99 1)">C</text><polyline class="cls-12" points="785.91 392.66 689.37 399.86 731.78 366.88 726.52 321.03"/></svg>